<svg id="Layer_1" data-name="Layer 1" xmlns="http://www.w3.org/2000/svg" width="530.53" height="116.51"><defs><style>.cls-1{fill:#f7f7f7}.cls-2{fill:#f3f3f3}.cls-3{fill:#050505}</style></defs><path class="cls-1" d="M53.88 60.3c3.83-1.61 7.46-3.21 11.15-4.67 9.45-3.75 18.94-7.4 28.39-11.14a53 53 0 0011.65-6.38 12.76 12.76 0 004.54-5.82 6 6 0 00-.3-5.19c-2-3.76-5.28-6.08-9-7.78a47 47 0 00-18.58-3.94c-15.77-.36-30.65 3.33-45.17 9a37.92 37.92 0 00-5.85 3c-.59.36-1.34 1.13-2 .25s.25-1.47.86-1.94A34.38 34.38 0 0138.26 21C48.51 17 59 13.9 70 12.85c9.12-.88 18.29-1.08 27.15 2 5.15 1.77 9.92 4.2 13.51 8.49s3.87 8.73.88 13.38-7.34 7.42-12 9.88C93 50 85.87 52.35 78.93 55c-9.1 3.42-18 7.39-26.91 11.2-1.91.81-2.76 2.34-3.52 4-.44 1 .36 1.31 1 1.66A74.54 74.54 0 0163.79 82c5.35 4.61 9.49 10.25 13.66 15.86a163.83 163.83 0 0110.14 14.65c.08.12.16.25.23.38.39.81 1 1.82 0 2.42-1.12.71-1.49-.55-2-1.23-7.41-10.86-14.99-21.58-24.68-30.6a50.79 50.79 0 00-12-8.35c-2.42-1.22-2.66-1.11-3.91 1.23C37 91.76 29.38 107.45 21.54 123c-.79 1.56-1.58 3.11-2.47 4.61-.42.71-1 1.53-2 .94s-.59-1.45-.23-2.21q9.87-20.89 20.13-41.6c1.68-3.39 3.39-6.78 5-10.18.82-1.68.71-1.92-.94-2.79-2.29-1.2-2.49-3.42-.39-5a22 22 0 015.11-2.79 5.89 5.89 0 003.12-2.84C55 50 60.86 38.76 67.37 27.83a54 54 0 013.86-5.52c.47-.61 1-1.3 1.84-.77s.53 1.34.16 2Q70.16 29.3 67 35c-4.11 7.63-8.32 15.23-12.27 23a7.09 7.09 0 00-.85 2.3z" transform="translate(-16.38 -12.28)"/><path class="cls-2" d="M209.76 65.91a9.16 9.16 0 01-3.39 2.83 98.81 98.81 0 01-13.38 7 15.6 15.6 0 01-7.57 1.41 4.06 4.06 0 00-3.6 1.38 8.15 8.15 0 01-3.24 2.1c-2.42.89-4.42-.1-5.07-2.61-.75-2.9.18-5.51 1.56-8a19.19 19.19 0 001.64-3.2c-.92.43-1.84.84-2.75 1.29q-6.5 3.21-13 6.45a12.25 12.25 0 01-5.22 1.14 4.12 4.12 0 01-4.11-2.7 9.79 9.79 0 01-.54-6.16c.08-.42.37-1-.07-1.25-.59-.33-.85.38-1.12.72q-2.9 3.69-5.69 7.35a8.35 8.35 0 01-2.94 2.5 2 2 0 01-3-1A6.55 6.55 0 01138 71c.86-5.2 3-10 4.52-15a11.37 11.37 0 00.9-3.37 22.09 22.09 0 00-3.48 4.37c-4.23 6.47-7.87 13.31-11.94 19.88-1.37 2.2-2.85 4.34-4.29 6.49a8.72 8.72 0 01-1 1.13c-.38.41-.8.81-1.43.5s-.52-.94-.43-1.46a50.67 50.67 0 014-11.87c.5-1.11 1.07-2.18 1.6-3.27-.69-.35-.88.12-1.12.37a130.33 130.33 0 01-10.18 8.6 11.17 11.17 0 01-4.73 2.14c-2.33.53-4.17-.65-4.91-3-.7-2.21-.71-2.23-2.37-.7a11 11 0 01-4.19 2.55c-2.78.89-4.86-.56-5.12-3.48a10.33 10.33 0 011.34-6.05 16.41 16.41 0 0110-8.26 4.35 4.35 0 015.27 2c.28.55.54 1.29 0 1.59s-.69-.52-.91-.9a2.2 2.2 0 00-2.74-1.19 7.1 7.1 0 00-3.39 1.79c-1.38 1.38-2.79 2.73-4.12 4.15a12.23 12.23 0 00-3.08 6.7c-.32 2.17 1 3.19 3 2.28a15.51 15.51 0 007-6.53c.78-1.33 1.21-2.85 2.23-4 .35-.41.75-.93 1.37-.54s.38 1 .15 1.49a28.09 28.09 0 00-2.34 6.28c-.27 1.47-.76 3 .62 4.19s2.75.19 4.07-.32a15 15 0 004.35-2.88c3.28-2.84 6.5-5.76 9.82-8.57a11 11 0 003.48-5.1 7.18 7.18 0 011.43-2.61 1 1 0 011.2-.32 1 1 0 01.55 1.12 19.61 19.61 0 01-.62 2.15A135.82 135.82 0 01126.06 75a9.39 9.39 0 00-1.38 4.07c.77-.16.92-.82 1.21-1.3q5.69-9.58 11.34-19.19a60.4 60.4 0 014.31-6.3c.84-1.1 1.85-2.51 3.37-1.88 1.7.7 1 2.52.73 3.75-.66 2.9-1.63 5.74-2.5 8.6-.92 3-1.94 6.08-2.59 9.21a9.13 9.13 0 00-.19 1c0 .4-.07.85.35 1.07s.75-.13 1-.39a33.51 33.51 0 005-5.75 24.85 24.85 0 013.14-3.81c.66-.62 1.37-1.31 2.35-.94s1.15 1.43 1.21 2.39a23.88 23.88 0 00.38 5.06c.5 1.82 1.09 2.31 2.94 2.32a10.87 10.87 0 003.95-.75c6.12-2.28 11.91-5.34 17.92-7.88a2.15 2.15 0 00.86-.8 10.81 10.81 0 012.22-2.21c2.51-1.83 5-1 6 1.91a10.2 10.2 0 01-.13 6 24.22 24.22 0 01-1.84 4.4c-.7 1.42-.58 1.6 1 1.74 3.33.31 6.25-1.06 9.16-2.36A91.37 91.37 0 00207.23 67c.63-.4 1.2-1.09 2.13-.81.67.2.43-.33.42-.62-.15-4.47 5.25-8.21 9.4-6.49a3.46 3.46 0 012.43 3.13 5.1 5.1 0 01-1.91 4.34.94.94 0 01-1.25.07c-.38-.34 0-.72.24-1l.08-.12c.79-1.19 1.62-2.4.57-3.82-.68-.91-2.38-.92-4.05-.13-.27.13-.53.27-.79.42-2.52 1.44-2.9 2.48-1.78 5.12 1 2.44 2.89 4.42 4 6.82.39.81 1.13.41 1.72.2 4.17-1.51 8.33-3 12.5-4.53 3.38-1.22 6.76-2.39 10.15-3.58a7.54 7.54 0 011.16-.28.5.5 0 01.61.29c.09.28-.11.46-.36.57-.45.19-.9.41-1.36.59q-11.14 4.22-22.32 8.49a2.38 2.38 0 00-1.74 2.25c-.53 4.09-5.39 8.49-10 9.2a12.67 12.67 0 01-4 .07 2.75 2.75 0 01-2.55-2 2.64 2.64 0 011.36-2.78 41.33 41.33 0 016.93-4.11c1.63-.77 3.22-1.6 4.87-2.31 1.13-.49 1.23-1.19.64-2.12q-1.32-2.09-2.7-4.14a11.13 11.13 0 01-1.87-3.81zm-23.28.17a5.92 5.92 0 000-1.19c-.18-.92-.35-1.94-1.36-2.32s-1.84.37-2.58 1.07-1 2-1.56 3a6 6 0 001 7c.8.8 1.41.74 2.05-.18a13.17 13.17 0 002.45-7.38zm18 19.5a16.66 16.66 0 001.84-.33c3.43-1 6.49-2.53 8.16-6 .22-.45.47-1 0-1.38s-.78-.16-1.12 0c-3.31 1.7-6.81 3-9.82 5.3-.5.37-1.18.78-.95 1.53s1.18.78 1.93.88zM177.62 71a9.34 9.34 0 00-2 6c.06 1 .56 2 1.87 1.8a5.14 5.14 0 003.35-2c.31-.39.35-.69 0-1a14.62 14.62 0 01-3.22-4.8zm-.53-4.23l-.17.1s.07.09.09.09a1.11 1.11 0 00.19-.09zM126.41 68l-.18.1s.06.09.09.09l.18-.09zM310.33 61.5v7.11c0 3.29-.07 6.59 0 9.89 0 1-.37 1.11-1.23 1.13-1.06 0-.78-.65-.78-1.18V59.71c0-.46-.38-1.27.37-1.36s1.71-.4 2.38.64c2.53 3.89 5.14 7.72 7.72 11.58a61.23 61.23 0 004.21 5.85v-7.1-9.74c0-.72-.1-1.28 1-1.33 1.31-.06 1 .7 1 1.4v18.44c0 .48.49 1.37-.42 1.46s-1.8.37-2.5-.72c-2.28-3.58-4.68-7.08-7-10.61l-4.53-6.78z" transform="translate(-16.38 -12.28)"/><path class="cls-1" d="M468 69c2.31 1.18 2.48 3.23 2.58 5.32.09 1.76-.21 3.59.84 5.21-2.42.17-2.46.18-2.7-2.13-.15-1.44-.17-2.89-.28-4.33-.17-2.11-1.21-3.24-3.3-3.33s-4.49 0-6.73 0c-.86 0-.82.45-.82 1v7.78c0 .81-.17 1.12-1.06 1.14s-1-.4-1-1.14V59.35c0-.43-.27-1.06.61-1 3.29.13 6.59-.27 9.86.22s4.73 1.67 5.14 3.93c.62 2.94-.14 4.66-3.14 6.5zm-10.4-5.1v3.44c0 .46-.06.89.65.87 2.34 0 4.69.1 7-.09a4.13 4.13 0 004.06-4.46c-.08-2.36-1.66-3.76-4.43-3.84-2-.05-3.9.09-5.83 0-1.33-.09-1.63.39-1.49 1.58a21.51 21.51 0 01.05 2.49zM425.4 69c2.29 1.15 2.49 3.19 2.6 5.28.09 1.77-.22 3.6.82 5.23-2.41.26-2.43.26-2.69-2.2-.14-1.39-.18-2.79-.28-4.18-.15-2.13-1.15-3.26-3.24-3.36-2.29-.11-4.59 0-6.89-.07-.81 0-.71.47-.71 1v7.78c0 .9-.21 1.18-1.15 1.21-1.11 0-.89-.65-.89-1.25V59.57c0-.94.19-1.3 1.21-1.24 3.13.17 6.28-.25 9.4.23s4.58 1.65 5 3.88c.62 2.91-.22 4.72-3.18 6.56zM415 63.9v3.44c0 .62.13.88.81.87 2.2 0 4.4.06 6.59-.06a4.23 4.23 0 004.34-4.52c-.07-2.33-1.68-3.75-4.45-3.82-2.09-.05-4.19 0-6.28 0-.92 0-1.07.34-1 1.13.05.96-.01 1.96-.01 2.96z" transform="translate(-16.38 -12.28)"/><path class="cls-2" d="M406.14 68.9c-.08 3.81-1.08 7.26-4.46 9.44-5 3.22-14 2-15.4-7.1a13.28 13.28 0 011.27-8.71c2.24-4 5.83-5.19 9.7-4.77a9.36 9.36 0 018.55 7.72 13.07 13.07 0 01.34 3.42zm-2 .23a17.72 17.72 0 00-.5-4.11 7.51 7.51 0 00-6.79-5.81c-3.9-.22-6.54 1.45-8 5a13.3 13.3 0 00-.7 6.34c.41 4.57 3.26 7.64 7.19 7.83 4.55.23 7.53-2.1 8.49-6.67.23-.93.25-1.89.33-2.58zM539.18 79.93c-2.5-.16-4.9-.52-6.57-2.66a5.11 5.11 0 01-1.21-3c0-.4-.47-1.1.47-1.06.6 0 1.26-.33 1.52.82 1 4.26 6.94 6 10.21 3.06a3.81 3.81 0 00-1.1-6.49c-1.6-.64-3.32-1-5-1.47a21.07 21.07 0 01-2.13-.66 5.1 5.1 0 01-3.6-5 5.39 5.39 0 013.68-5.13 9.68 9.68 0 017.16 0 5.44 5.44 0 013.59 4.43c.07.45.3 1.1-.57 1-.5-.05-1.2.39-1.32-.67a4.09 4.09 0 00-3.55-3.73c-2.22-.45-4.44-.36-6.12 1.44a3.53 3.53 0 001.81 5.81c2.19.67 4.39 1.29 6.59 1.91a4.72 4.72 0 013.76 4c.34 2.36-.11 4.48-2.25 5.93a10.17 10.17 0 01-5.37 1.47zM476.84 79.47l6.21-15.67c.62-1.57 1.32-3.12 1.85-4.72.29-.89.87-.79 1.52-.79s1.08 0 1.38.76c2.49 6.56 5 13.1 7.56 19.64.11.29.55.83-.18.87s-1.42.38-1.77-.59c-.59-1.69-1.27-3.35-1.83-5a1.2 1.2 0 00-1.4-.94c-2.6 0-5.19.07-7.79 0a1.29 1.29 0 00-1.47 1.08c-.46 1.37-1.14 2.67-1.5 4.06s-1.2 1.68-2.58 1.3zM486.29 60L482 71.43h8.62c-1.46-3.78-2.84-7.43-4.33-11.43z" transform="translate(-16.38 -12.28)"/><path class="cls-1" d="M332.9 68.93v-9.58c0-.86.24-1.08 1.07-1.08h12.14c.55 0 1.23-.23 1.2.8s-.81.68-1.29.69c-3.3 0-6.6.05-9.89 0-.9 0-1.22.17-1.17 1.13.09 1.75.08 3.5 0 5.24 0 .91.19 1.19 1.14 1.17 2.94-.07 5.89 0 8.84 0 .6 0 1.2-.13 1.16.85s-.73.64-1.19.64c-2.84 0-5.69.07-8.54 0-1.05 0-1.48.16-1.42 1.35.11 2.25.07 4.5 0 6.74 0 .94.17 1.28 1.2 1.26 3.39-.08 6.79 0 10.19 0 .51 0 1.24-.33 1.25.73s-.71.75-1.23.75h-12.29c-1 0-1.21-.32-1.19-1.25.06-3.14.02-6.29.02-9.44zM365.56 68.8v-9.44c0-.43-.28-1.09.59-1.06 3 .11 6.09-.29 9.11.21 3.8.63 5.18 2.27 5.12 5.88-.05 2.9-2.05 4.81-5.39 5.36a38.19 38.19 0 01-6.41.23c-.87 0-1.08.26-1.06 1.09.06 2.5 0 5 .05 7.49 0 .9-.33 1-1.12 1.07s-.91-.45-.91-1.09q.03-4.87.02-9.74zm2-4.74v3.59c0 .49 0 .87.68.85 2.1 0 4.2.06 6.28-.13a3.81 3.81 0 003.69-2.75c.92-3.22-.78-5.6-4.26-5.79-1.79-.1-3.59 0-5.38 0-.93 0-1.07.38-1 1.14 0 1.03-.03 2.03-.03 3.09zM277.26 68.92v-9.29c0-1 .16-1.38 1.27-1.36 3.8.07 7.6 0 11.4 0 .56 0 1.21-.19 1.18.82s-.69.67-1.15.67c-3.15 0-6.3.07-9.45 0-1.09 0-1.34.32-1.28 1.34a34.8 34.8 0 010 4.79c-.1 1.28.42 1.44 1.51 1.42 2.74-.07 5.49 0 8.24 0 .52 0 1.09-.2 1.09.74s-.54.76-1.07.76h-8.55c-1 0-1.23.3-1.21 1.26.06 2.84 0 5.69 0 8.54 0 .69-.06 1.07-.94 1.06s-1.08-.29-1.06-1.11v-9.6z" transform="translate(-16.38 -12.28)"/><path class="cls-2" d="M441 69.69v-8.84c0-.87-.25-1.09-1.08-1.06-1.6.06-3.2 0-4.8 0-.57 0-.91 0-.91-.77s.4-.75.93-.75h13.8c.53 0 .95 0 1 .74s-.35.79-.92.78c-1.55 0-3.1.06-4.64 0-1-.06-1.35.21-1.34 1.29.06 5.7 0 11.39 0 17.09 0 .65.37 1.47-1 1.49s-1.04-.83-1.04-1.57v-8.4zM517.76 69.55v-8.7c0-.87-.25-1.09-1.08-1.06-1.6.06-3.2 0-4.8 0-.56 0-.91 0-.91-.77s.39-.75.93-.75h13.8c.52 0 .95 0 1 .74s-.35.79-.91.78c-1.55 0-3.11.06-4.65 0-1-.06-1.35.21-1.34 1.29.06 5.74 0 11.49 0 17.23 0 .67.23 1.35-1 1.35s-1.1-.64-1.09-1.41c.06-2.91.05-5.81.05-8.7z" transform="translate(-16.38 -12.28)"/><path class="cls-1" d="M300 69v9.59c0 .84-.23 1.06-1.07 1.09s-.89-.49-.89-1.1V59.4c0-.84.23-1.06 1.07-1.09s.89.48.89 1.1V69zM504.23 68.94v9.58c0 .8-.16 1.11-1 1.11s-.91-.45-.91-1.11V59.37c0-.83.21-1.08 1.06-1.11s.9.48.89 1.1zM260.7 86.76V50.23h.3v36.53z" transform="translate(-16.38 -12.28)"/><path class="cls-3" d="M177.09 66.75l.11.1a1.11 1.11 0 01-.19.09l-.09-.09zM126.41 68l.09.1-.18.09-.09-.09z" transform="translate(-16.38 -12.28)"/></svg>